<?xml version="1.0" ?><svg viewBox="0 0 32 32" xmlns="http://www.w3.org/2000/svg"><title/><g data-name="Layer 57" id="Layer_57"><path d="M16,20a3.08,3.08,0,0,1-.53,0L19,16.47A3.08,3.08,0,0,1,19,17,3,3,0,0,1,16,20Z"/><path d="M28,11V23a3,3,0,0,1-3,3H9.42l4.47-4.47a5,5,0,0,0,6.64-6.64l2.54-2.54A1,1,0,0,0,24,13a1,1,0,0,0,1-1,1,1,0,0,0-.65-.93l2.46-2.46A3,3,0,0,1,28,11Z"/><path d="M27.71,4.29a1,1,0,0,0-1.42,0L22.59,8H14a2,2,0,0,0-2-2H10A2,2,0,0,0,8,8H7a3,3,0,0,0-3,3V23a3,3,0,0,0,1.2,2.39l-.91.9a.21.21,0,0,0-.06.08l-.07.07a1,1,0,0,0,1.55,1.27l22-22A1,1,0,0,0,27.71,4.29ZM16.54,14A3.28,3.28,0,0,0,16,14a3,3,0,0,0-3,3,3.29,3.29,0,0,0,0,.54L11.49,19.1A4.8,4.8,0,0,1,11,17a5,5,0,0,1,5-5,4.8,4.8,0,0,1,2.1.49Z"/><path d="M19,17a3,3,0,0,1-3,3,3.08,3.08,0,0,1-.53,0L19,16.47A3.08,3.08,0,0,1,19,17Z"/></g></svg>