<?xml version="1.0" ?><svg viewBox="0 0 32 32" xmlns="http://www.w3.org/2000/svg"><title/><g data-name="Layer 57" id="Layer_57"><path d="M21,15v-.58L15.45,20A4.93,4.93,0,0,0,16,20,5,5,0,0,0,21,15Z"/><path d="M24,15a1,1,0,0,0-2,0,6,6,0,0,1-6,6,5.92,5.92,0,0,1-1.41-.17L13,22.41a7.77,7.77,0,0,0,2,.52V26H11.5a1,1,0,0,0,0,2h9a1,1,0,0,0,0-2H17V22.93A8,8,0,0,0,24,15Z"/><path d="M27.71,4.29a1,1,0,0,0-1.41,0L21,9.59V9A5,5,0,0,0,11,9v6a5,5,0,0,0,1.27,3.32l-.71.71A6,6,0,0,1,10,15a1,1,0,0,0-2,0,7.92,7.92,0,0,0,2.16,5.43L4.29,26.29a1,1,0,1,0,1.41,1.41l22-22A1,1,0,0,0,27.71,4.29Z"/></g></svg>